<svg width="40" height="40" fill="none" xmlns="http://www.w3.org/2000/svg"><path fill-rule="evenodd" clip-rule="evenodd" d="M4.118 17.5c0 7.39 5.991 13.382 13.382 13.382 7.39 0 13.382-5.991 13.382-13.382 0-7.39-5.991-13.382-13.382-13.382-7.39 0-13.382 5.991-13.382 13.382ZM17.5 0C7.835 0 0 7.835 0 17.5S7.835 35 17.5 35 35 27.165 35 17.5 27.165 0 17.5 0Z" fill="#5a5d7c"/><path d="M27.055 26.964a2.025 2.025 0 0 1 2.89 0l8.672 8.783a2.09 2.09 0 0 1 0 2.928 2.026 2.026 0 0 1-2.891 0l-8.671-8.783a2.09 2.09 0 0 1 0-2.928Z" fill="#5a5d7c"/></svg>
